HIERARCHY
ROOT Hips
{
	OFFSET 51.569801 -7.401784 84.338303
	CHANNELS 6 Xposition Yposition Zposition Xrotation Yrotation Zrotation
	JOINT spine
	{
		OFFSET 0.000000 -0.342408 5.954376
		CHANNELS 3 Xrotation Yrotation Zrotation
		JOINT spine1
		{
			OFFSET 0.000000 -0.000001 8.856018
			CHANNELS 3 Xrotation Yrotation Zrotation
			JOINT spine2
			{
				OFFSET 0.000000 -0.000001 8.485672
				CHANNELS 3 Xrotation Yrotation Zrotation
				JOINT Neck
				{
					OFFSET 0.000000 -1.038703 21.786301
					CHANNELS 3 Xrotation Yrotation Zrotation
					JOINT Head
					{
						OFFSET 0.000000 -0.000001 6.582199
						CHANNELS 3 Xrotation Yrotation Zrotation
						End Site
						{
							OFFSET 0.000000 5.254357 15.932602
						}
					}
				}
				JOINT RightShoulder
				{
					OFFSET -3.573071 0.497524 9.163864
					CHANNELS 3 Xrotation Yrotation Zrotation
					JOINT RightArm
					{
						OFFSET 0.000000 -0.000002 12.019196
						CHANNELS 3 Xrotation Yrotation Zrotation
						JOINT RightArmRoll
						{
							OFFSET 0.000000 -0.000001 6.067551
							CHANNELS 3 Xrotation Yrotation Zrotation
							JOINT RightForeArm
							{
								OFFSET 0.000000 -0.000003 17.672607
								CHANNELS 3 Xrotation Yrotation Zrotation
								JOINT RightForeArmRoll
								{
									OFFSET 0.000000 -0.000001 6.808716
									CHANNELS 3 Xrotation Yrotation Zrotation
									JOINT RightHand
									{
										OFFSET 0.000000 -0.000002 13.663605
										CHANNELS 3 Xrotation Yrotation Zrotation
										End Site
										{
											OFFSET 0.000000 0.000000 0.100006
										}
									}
								}
							}
						}
					}
				}
				JOINT LeftShoulder
				{
					OFFSET 3.573071 0.497524 9.163864
					CHANNELS 3 Xrotation Yrotation Zrotation
					JOINT LeftArm
					{
						OFFSET 0.000000 -0.000002 12.019196
						CHANNELS 3 Xrotation Yrotation Zrotation
						JOINT LeftArmRoll
						{
							OFFSET 0.000000 -0.000001 6.067551
							CHANNELS 3 Xrotation Yrotation Zrotation
							JOINT LeftForeArm
							{
								OFFSET 0.000000 -0.000003 17.672607
								CHANNELS 3 Xrotation Yrotation Zrotation
								JOINT LeftForeArmRoll
								{
									OFFSET 0.000000 -0.000001 6.808716
									CHANNELS 3 Xrotation Yrotation Zrotation
									JOINT LeftHand
									{
										OFFSET 0.000000 -0.000002 13.663605
										CHANNELS 3 Xrotation Yrotation Zrotation
										End Site
										{
											OFFSET 0.000000 0.000000 0.100006
										}
									}
								}
							}
						}
					}
				}
			}
		}
	}
	JOINT RightUpLeg
	{
		OFFSET -5.277740 0.811859 -0.967796
		CHANNELS 3 Xrotation Yrotation Zrotation
		JOINT RightUpLegRoll
		{
			OFFSET 0.000000 -0.000003 16.021400
			CHANNELS 3 Xrotation Yrotation Zrotation
			JOINT RightLeg
			{
				OFFSET 0.000000 0.000003 -19.840103
				CHANNELS 3 Xrotation Yrotation Zrotation
				JOINT RightLegRoll
				{
					OFFSET 0.000000 -0.000003 19.904999
					CHANNELS 3 Xrotation Yrotation Zrotation
					JOINT RightFoot
					{
						OFFSET 0.000000 -0.000003 16.567497
						CHANNELS 3 Xrotation Yrotation Zrotation
						JOINT RightToeBase
						{
							OFFSET 0.000000 -0.000002 13.849602
							CHANNELS 3 Xrotation Yrotation Zrotation
							End Site
							{
								OFFSET 0.005871 0.773115 6.707275
							}
						}
					}
				}
			}
		}
	}
	JOINT LeftUpLeg
	{
		OFFSET 5.277740 0.811859 -0.967796
		CHANNELS 3 Xrotation Yrotation Zrotation
		JOINT LeftUpLegRoll
		{
			OFFSET 0.000000 -0.000003 16.021500
			CHANNELS 3 Xrotation Yrotation Zrotation
			JOINT LeftLeg
			{
				OFFSET 0.000000 -0.000003 19.840004
				CHANNELS 3 Xrotation Yrotation Zrotation
				JOINT LeftLegRoll
				{
					OFFSET 0.000000 -0.000003 20.089005
					CHANNELS 3 Xrotation Yrotation Zrotation
					JOINT LeftFoot
					{
						OFFSET 0.000000 -0.000002 16.383499
						CHANNELS 3 Xrotation Yrotation Zrotation
						JOINT LeftToeBase
						{
							OFFSET 0.000000 -0.000002 13.849594
							CHANNELS 3 Xrotation Yrotation Zrotation
							End Site
							{
								OFFSET -0.026310 0.773115 6.707275
							}
						}
					}
				}
			}
		}
	}
}
MOTION
Frames: 5
Frame Time: 0.041667
52.540092 -4.907848 84.277496 -9.883542 1.532889 -2.041876 -0.277852 -0.473290 0.101418 3.453417 -0.969462 0.206489 5.098588 -0.966909 0.218506 15.587687 4.715146 -1.451806 3.922838 -5.288790 -1.296400 1.762674 -73.865757 0.242715 -48.537619 -113.716871 -53.237069 -0.000002 -0.000024 0.000003 -0.026942 3.640850 -1.990699 -0.000001 0.000031 -3.011591 -5.000171 -7.999929 0.000005 -2.340464 63.788851 3.212945 -33.905838 122.168302 46.403643 -0.000000 0.000000 -0.000001 -0.030834 -3.652969 1.990904 -0.000002 -0.000011 3.011589 -5.000160 7.999938 0.000008 3.782635 179.450202 3.030470 -179.999991 0.000005 -1.187996 171.891669 -2.783931 -0.506465 0.000003 0.000001 0.092530 68.827297 6.882582 2.157739 25.456957 -7.355615 0.000001 2.322558 177.901716 -1.848624 -0.000004 -0.000004 -1.171510 -13.183961 3.171917 0.728290 0.000007 -0.000002 -0.204156 71.217242 -6.814454 -2.170766 25.456952 7.355613 -0.000001 
52.539692 -4.910509 84.279007 -9.891498 1.537757 -2.041648 -0.275749 -0.474479 0.101416 3.457089 -0.971233 0.206488 5.102261 -0.968679 0.218505 15.594082 4.713930 -1.455663 3.909477 -5.292685 -1.299642 1.772046 -73.864685 0.253009 -48.530779 -113.718135 -53.232439 -0.000000 -0.000024 0.000003 -0.026943 3.640850 -1.990699 -0.000000 0.000031 -3.011592 -5.000171 -7.999930 0.000004 -2.334829 63.792751 3.206887 -33.928070 122.169545 46.423157 -0.000001 0.000000 0.000000 -0.030832 -3.652970 1.990906 -0.000002 -0.000010 3.011590 -5.000166 7.999940 0.000005 3.792360 179.444219 3.027391 -179.999991 0.000005 -1.187997 171.888172 -2.779944 -0.505074 0.000003 0.000001 0.092571 68.829838 6.882597 2.157682 25.456959 -7.355614 -0.000001 2.347819 177.924748 -1.809886 -0.000004 -0.000004 -1.171510 -13.153889 3.131215 0.721982 0.000007 -0.000002 -0.204930 71.230670 -6.814421 -2.170840 25.456953 7.355613 -0.000001 
52.542999 -4.902885 84.278610 -9.899826 1.542900 -2.041600 -0.273572 -0.475720 0.101417 3.460890 -0.973102 0.206487 5.106064 -0.970548 0.218503 15.601084 4.712912 -1.459442 3.895640 -5.296582 -1.302809 1.781556 -73.863701 0.263447 -48.524099 -113.719480 -53.227804 0.000000 -0.000024 0.000003 -0.026941 3.640851 -1.990699 0.000002 0.000030 -3.011592 -5.000171 -7.999929 0.000004 -2.329825 63.796631 3.201555 -33.948823 122.170337 46.441311 0.000002 -0.000001 0.000000 -0.030829 -3.652970 1.990904 -0.000002 -0.000010 3.011592 -5.000162 7.999939 0.000008 3.802304 179.438249 3.024136 -179.999991 0.000005 -1.187996 171.884251 -2.774967 -0.503547 0.000003 0.000002 0.092632 68.832474 6.882615 2.157625 25.456955 -7.355617 0.000001 2.374132 177.947765 -1.769878 -0.000005 -0.000004 -1.171510 -13.122811 3.089065 0.715499 0.000006 -0.000002 -0.205732 71.244542 -6.814444 -2.170797 25.456957 7.355613 -0.000001 
52.552895 -4.902761 84.277611 -9.908403 1.548219 -2.041683 -0.271344 -0.476994 0.101416 3.464782 -0.975040 0.206485 5.109958 -0.972485 0.218503 15.608389 4.712041 -1.463159 3.881474 -5.300485 -1.305930 1.791137 -73.862629 0.273963 -48.517610 -113.720881 -53.223235 -0.000001 -0.000024 0.000003 -0.026943 3.640850 -1.990699 -0.000001 0.000031 -3.011591 -5.000174 -7.999931 0.000004 -2.325273 63.800510 3.196739 -33.967887 122.171730 46.457536 0.000001 0.000000 0.000001 -0.030833 -3.652970 1.990904 -0.000004 -0.000010 3.011589 -5.000162 7.999940 0.000006 3.812410 179.432252 3.020747 -179.999991 0.000005 -1.187997 171.880044 -2.769989 -0.502049 0.000003 0.000002 0.092707 68.835213 6.882605 2.157651 25.456959 -7.355616 -0.000000 2.401175 177.970769 -1.728963 -0.000005 -0.000004 -1.171510 -13.090921 3.045900 0.708903 0.000007 -0.000002 -0.206554 71.258838 -6.814426 -2.170819 25.456952 7.355613 -0.000000 
52.552200 -4.901250 84.275208 -9.917141 1.553635 -2.041844 -0.269087 -0.478288 0.101416 3.468725 -0.977016 0.206485 5.113902 -0.974463 0.218502 15.616102 4.711239 -1.466855 3.867117 -5.304383 -1.309020 1.800782 -73.861638 0.284549 -48.510947 -113.722226 -53.218416 -0.000003 -0.000024 0.000003 -0.026942 3.640850 -1.990699 -0.000000 0.000030 -3.011590 -5.000169 -7.999930 0.000004 -2.320945 63.804383 3.192184 -33.987158 122.172099 46.474236 0.000001 0.000000 -0.000000 -0.030832 -3.652970 1.990904 -0.000003 -0.000010 3.011592 -5.000162 7.999939 0.000009 3.822593 179.425286 3.017241 -179.999991 0.000005 -1.187997 171.875673 -2.766010 -0.500700 0.000003 0.000002 0.092791 68.837966 6.882629 2.157683 25.456959 -7.355616 -0.000001 2.428637 177.994798 -1.687479 -0.000005 -0.000004 -1.171510 -13.058537 3.002144 0.702263 0.000007 -0.000002 -0.207388 71.273243 -6.814433 -2.170840 25.456947 7.355613 -0.000001 
